<?xml version="1.0" encoding="utf-8"?>
<!-- Generator: Adobe Illustrator 19.0.0, SVG Export Plug-In . SVG Version: 6.00 Build 0)  -->
<svg version="1.1" id="Layer_1" xmlns="http://www.w3.org/2000/svg" xmlns:xlink="http://www.w3.org/1999/xlink" x="0px" y="0px"
	 viewBox="134 -111.8 287.7 169.7" style="enable-background:new 134 -111.8 287.7 169.7;" xml:space="preserve">
<style type="text/css">
	.st0{fill:#EE2737;}
</style>
<g>
	<g>
		<polygon points="176.3,-80.1 163.3,-80.1 163.3,26.2 208.6,26.2 208.6,13.9 176.3,13.9 		"/>
		<rect x="222.2" y="-80.2" width="13" height="106.5"/>
		<polygon points="279.4,13.9 276.4,13.9 262.4,-80.2 249.1,-80.2 265.1,26.8 290.6,26.8 306.9,-80.2 293.7,-80.2 		"/>
		<polygon points="319.5,26.2 365.3,26.2 365.3,13.3 332.5,13.3 332.5,-19.9 358.3,-19.9 358.3,-32.8 332.5,-32.8 332.5,-67.2 
			363.3,-67.2 363.3,-80.1 319.5,-80.1 		"/>
	</g>
	<g>
		<g>
			<path d="M408.4-67.9v54.1h-21.1v-3.8l19.1-50.3C406.4-67.9,408.4-67.9,408.4-67.9z M374.1-19.9v19h34.3v27.1h13.3V-80.2h-24.4
				L374.1-19.9z"/>
			<polygon class="st0" points="387.5,-111.8 134.3,-111.8 134.3,57.9 387.5,57.9 387.5,13.3 374.5,13.3 374.5,45.6 147.3,45.6 
				147.3,-99.4 374.5,-99.4 374.5,-67 377.6,-67 387.5,-92.7 			"/>
		</g>
	</g>
</g>
</svg>
